<svg xmlns="http://www.w3.org/2000/svg" xmlns:xlink="http://www.w3.org/1999/xlink" version="1.1" style="enable-background:new 0 0 528.6 119.1;" xml:space="preserve" width="119.20877621441855" height="120.09890113920858"><rect id="backgroundrect" width="100%" height="100%" x="0" y="0" fill="none" stroke="none" class="selected"/>
<style type="text/css">
	.st0{fill:#3C4346;}
	.st1{fill:#4C83C4;}
	.st2{display:none;clip-path:url(#SVGID_2_);fill:url(#SVGID_3_);}
	.st3{clip-path:url(#SVGID_2_);fill:url(#SVGID_4_);}
	.st4{clip-path:url(#SVGID_2_);fill:url(#SVGID_5_);}
	.st5{display:none;clip-path:url(#SVGID_2_);fill:url(#SVGID_6_);}
	.st6{clip-path:url(#SVGID_2_);fill:url(#SVGID_7_);}
	.st7{clip-path:url(#SVGID_2_);fill:url(#SVGID_8_);}
</style>


<g class="currentLayer"><title>Layer 1</title><g id="svg_9">
	<defs>
		<path id="SVGID_1_" d="M118.7,100.6c0,10-8.1,18.1-18.1,18.1H18.1c-10,0-18.1-8.1-18.1-18.1V18.1C0,8.1,8.1,0,18.1,0h82.5    c10,0,18.1,8.1,18.1,18.1V100.6z"/>
	</defs>
	<clipPath id="SVGID_2_">
		<use xlink:href="#SVGID_1_" style="overflow:visible;" id="svg_10"/>
	</clipPath>
	<linearGradient id="SVGID_3_" gradientUnits="userSpaceOnUse" x1="86.64540100097656" y1="80.59149932861328" x2="86.64540100097656" y2="38.125">
		<stop offset="0" style="stop-color:#74ACDD"/>
		<stop offset="1" style="stop-color:#3678BD"/>
	</linearGradient>
	<path class="st2" d="M103,45.7l-5.5-2.9c-10.4-6-37-4.8-43.9-3.9l0.5,1.8h18.1c3.2,0,5.7,2.6,5.7,5.7v26c0,3.2-2.6,5.7-5.7,5.7   h-7.2l0.7,2.4c22.9,0,53.7,0.5,53.7-0.6V70C119.5,64,104.7,42.8,103,45.7z" id="svg_11"/>
	
		<linearGradient id="SVGID_4_" gradientUnits="userSpaceOnUse" x1="-34.637901306152344" y1="38.07099914550781" x2="-34.637901306152344" y2="-42.87889862060547" gradientTransform="matrix(-1 0 0 -1 56.0468 77.6543)">
		<stop offset="0" style="stop-color:#1563A4"/>
		<stop offset="0.4597" style="stop-color:#3678BD"/>
	</linearGradient>
	<path class="st3" d="M72.3,40.7c3.2,0,5.7,2.7,5.7,5.9v13.1v12.9l-1,48c52.6,0,50.9-1.6,50.9-42.8l-10.2-7.6   c0-5.9-6.7-18.6-13.3-22.8l-7.7-5.1c-9.3-2.3-43.4-3.8-43.4-1.6l0.2,0H72.3z" id="svg_12"/>
	<linearGradient id="SVGID_5_" gradientUnits="userSpaceOnUse" x1="119.66940307617188" y1="36.68190002441406" x2="38.00699996948242" y2="36.68190002441406">
		<stop offset="0" style="stop-color:#74ACDD"/>
		<stop offset="1" style="stop-color:#3678BD"/>
	</linearGradient>
	<path class="st4" d="M77-0.8c-0.1,0-0.2,0-0.4,0H55.9h-7.1h-9.9c-1.4,0-0.7,43-0.7,65.9l2.5-3.3V46.4c0-3.2,2.6-5.7,5.7-5.7l26,0   c0,0,0,0,0,0h8.4c38,0,38,37.4,38,37.4l0.9-36.4C119.6-23.7,123-0.8,77-0.8z" id="svg_13"/>
	<linearGradient id="SVGID_6_" gradientUnits="userSpaceOnUse" x1="28.02359962463379" y1="-1.6478999853134155" x2="28.02359962463379" y2="79.3019027709961">
		<stop offset="0" style="stop-color:#74ACDD"/>
		<stop offset="1" style="stop-color:#3678BD"/>
	</linearGradient>
	<path class="st5" d="M46.4,78.1c-3.2,0-5.7-2.6-5.7-5.7V59.3V46.4v-48C-12-1.6-9.2,0-9.2,41.2L1,48.7c0,5.9,6.7,18.6,13.3,22.8   l7.7,5.1c9.3,2.3,43.4,3.8,43.4,1.6L65,78.1H46.4z" id="svg_14"/>
	
		<linearGradient id="SVGID_7_" gradientUnits="userSpaceOnUse" x1="9.5516996383667" y1="87.91239929199219" x2="89.57420349121094" y2="87.91239929199219" gradientTransform="matrix(0 1 -1 0 124.5957 -10.4892)">
		<stop offset="0" style="stop-color:#74ACDD"/>
		<stop offset="1" style="stop-color:#3678BD"/>
	</linearGradient>
	<path class="st6" d="M61.9,78.1L61.9,78.1l-15.5,0c-3.2,0-5.7-2.6-5.7-5.7v-26c0,0,0,0,0,0V38c0-38,37.4-38,37.4-38L41.6-0.9   c-65.3,0-42.4-3.4-42.4,42.6c0,0.1,0,0.2,0,0.4v20.8v7.1v9.1L61.9,78.1z" id="svg_15"/>
	<linearGradient id="SVGID_8_" gradientUnits="userSpaceOnUse" x1="-0.9585999846458435" y1="82.0530014038086" x2="78.04340362548828" y2="82.0530014038086">
		<stop offset="0" style="stop-color:#74ACDD"/>
		<stop offset="1" style="stop-color:#3678BD"/>
	</linearGradient>
	<path class="st7" d="M78,56.9L78,56.9l0,15.5c0,3.2-2.6,5.7-5.7,5.7h-26c0,0,0,0,0,0H38C0,78.1,0,40.7,0,40.7l-0.9,36.4   c0,65.3-3.4,42.4,42.6,42.4c0.1,0,0.2,0,0.4,0h20.8h7.1H78V56.9z" id="svg_16"/>
</g></g></svg>